<svg width="32" height="32" viewBox="0 0 32 32" fill="none" xmlns="http://www.w3.org/2000/svg">
<path fill-rule="evenodd" clip-rule="evenodd" d="M9.95337 1.42133C11.5174 1.34933 12.016 1.33333 16 1.33333C19.984 1.33333 20.4827 1.35067 22.0454 1.42133C23.608 1.492 24.6747 1.74133 25.608 2.10267C26.5854 2.472 27.472 3.04933 28.2054 3.796C28.952 4.528 29.528 5.41333 29.896 6.392C30.2587 7.32533 30.5067 8.392 30.5787 9.952C30.6507 11.5187 30.6667 12.0173 30.6667 16C30.6667 19.984 30.6494 20.4827 30.5787 22.0467C30.508 23.6067 30.2587 24.6733 29.896 25.6067C29.528 26.5855 28.9511 27.4723 28.2054 28.2053C27.472 28.952 26.5854 29.528 25.608 29.896C24.6747 30.2587 23.608 30.5067 22.048 30.5787C20.4827 30.6507 19.984 30.6667 16 30.6667C12.016 30.6667 11.5174 30.6493 9.95337 30.5787C8.39337 30.508 7.32671 30.2587 6.39337 29.896C5.4146 29.528 4.5278 28.951 3.79471 28.2053C3.04855 27.4729 2.47113 26.5865 2.10271 25.608C1.74137 24.6747 1.49337 23.608 1.42137 22.048C1.34937 20.4813 1.33337 19.9827 1.33337 16C1.33337 12.016 1.35071 11.5173 1.42137 9.95467C1.49204 8.392 1.74137 7.32533 2.10271 6.392C2.47167 5.41344 3.04953 4.52708 3.79604 3.79467C4.52809 3.04867 5.414 2.47126 6.39204 2.10267C7.32537 1.74133 8.39204 1.49333 9.95204 1.42133H9.95337ZM21.9267 4.06133C20.38 3.99067 19.916 3.976 16 3.976C12.084 3.976 11.62 3.99067 10.0734 4.06133C8.64271 4.12667 7.86671 4.36533 7.34937 4.56667C6.66537 4.83333 6.17604 5.14933 5.66271 5.66267C5.1761 6.13607 4.80161 6.71238 4.56671 7.34933C4.36537 7.86667 4.12671 8.64267 4.06137 10.0733C3.99071 11.62 3.97604 12.084 3.97604 16C3.97604 19.916 3.99071 20.38 4.06137 21.9267C4.12671 23.3573 4.36537 24.1333 4.56671 24.6507C4.80137 25.2867 5.17604 25.864 5.66271 26.3373C6.13604 26.824 6.71337 27.1987 7.34937 27.4333C7.86671 27.6347 8.64271 27.8733 10.0734 27.9387C11.62 28.0093 12.0827 28.024 16 28.024C19.9174 28.024 20.38 28.0093 21.9267 27.9387C23.3574 27.8733 24.1334 27.6347 24.6507 27.4333C25.3347 27.1667 25.824 26.8507 26.3374 26.3373C26.824 25.864 27.1987 25.2867 27.4334 24.6507C27.6347 24.1333 27.8734 23.3573 27.9387 21.9267C28.0094 20.38 28.024 19.916 28.024 16C28.024 12.084 28.0094 11.62 27.9387 10.0733C27.8734 8.64267 27.6347 7.86667 27.4334 7.34933C27.1667 6.66533 26.8507 6.176 26.3374 5.66267C25.8639 5.17609 25.2876 4.80161 24.6507 4.56667C24.1334 4.36533 23.3574 4.12667 21.9267 4.06133ZM14.1267 20.5213C15.1729 20.9568 16.3379 21.0156 17.4226 20.6876C18.5073 20.3596 19.4446 19.6652 20.0742 18.723C20.7038 17.7808 20.9868 16.6492 20.8748 15.5215C20.7628 14.3938 20.2627 13.34 19.46 12.54C18.9484 12.0286 18.3297 11.6371 17.6485 11.3935C16.9673 11.15 16.2406 11.0605 15.5207 11.1315C14.8008 11.2025 14.1056 11.4322 13.4851 11.8042C12.8646 12.1761 12.3344 12.681 11.9324 13.2825C11.5305 13.8839 11.267 14.5671 11.1607 15.2826C11.0545 15.9982 11.1082 16.7284 11.3181 17.4207C11.5279 18.113 11.8887 18.7501 12.3743 19.2863C12.86 19.8224 13.4585 20.2442 14.1267 20.5213ZM10.6694 10.6693C11.3694 9.9693 12.2005 9.414 13.1151 9.03515C14.0297 8.65629 15.01 8.4613 16 8.4613C16.99 8.4613 17.9703 8.65629 18.885 9.03515C19.7996 9.414 20.6307 9.9693 21.3307 10.6693C22.0307 11.3694 22.586 12.2004 22.9649 13.1151C23.3437 14.0297 23.5387 15.01 23.5387 16C23.5387 16.99 23.3437 17.9703 22.9649 18.8849C22.586 19.7996 22.0307 20.6306 21.3307 21.3307C19.9169 22.7444 17.9994 23.5387 16 23.5387C14.0007 23.5387 12.0832 22.7444 10.6694 21.3307C9.25559 19.9169 8.46134 17.9994 8.46134 16C8.46134 14.0006 9.25559 12.0831 10.6694 10.6693ZM25.2107 9.584C25.3842 9.42036 25.5231 9.22357 25.6191 9.0053C25.7152 8.78702 25.7665 8.55169 25.7699 8.31324C25.7734 8.07479 25.729 7.83806 25.6394 7.61708C25.5497 7.3961 25.4166 7.19535 25.248 7.02672C25.0794 6.85809 24.8786 6.72501 24.6576 6.63536C24.4366 6.5457 24.1999 6.5013 23.9615 6.50478C23.723 6.50825 23.4877 6.55954 23.2694 6.65559C23.0511 6.75165 22.8543 6.89053 22.6907 7.064C22.3725 7.40137 22.1982 7.84949 22.205 8.31324C22.2117 8.77698 22.399 9.21984 22.7269 9.54779C23.0549 9.87574 23.4977 10.063 23.9615 10.0697C24.4252 10.0765 24.8733 9.90225 25.2107 9.584Z" fill="#2C3131"/>
</svg>
