<svg width="33" height="32" viewBox="0 0 33 32" fill="none" xmlns="http://www.w3.org/2000/svg">
<path d="M18.5291 8.62802C16.2425 6.69668 7.2958 7.13001 7.2958 7.13001L6.98047 28.8967C6.98047 28.8967 18.8838 28.986 22.5491 28.8967C26.2145 28.8074 28.7765 25.8913 28.8158 23.6447C28.8551 21.398 28.8158 7.52468 28.8158 7.52468C24.2438 6.97201 20.8545 7.40602 18.5291 8.62802V8.62802Z" stroke="white" stroke-linecap="round" stroke-linejoin="round"/>
<path d="M13.5208 20.7653C16.0893 20.7653 18.1715 18.6831 18.1715 16.1147C18.1715 13.5462 16.0893 11.464 13.5208 11.464C10.9523 11.464 8.87012 13.5462 8.87012 16.1147C8.87012 18.6831 10.9523 20.7653 13.5208 20.7653Z" stroke="white" stroke-linecap="round" stroke-linejoin="round"/>
<path d="M21.8623 19.5533C22.795 19.9765 23.8505 20.0426 24.8287 19.739C25.8068 19.4355 26.6395 18.7835 27.1688 17.9067C27.6981 17.0299 27.8871 15.9894 27.7 14.9824C27.5129 13.9755 26.9627 13.0723 26.1538 12.4442C25.3449 11.816 24.3335 11.5067 23.3116 11.5748C22.2897 11.6429 21.3284 12.0837 20.61 12.8137C19.8916 13.5436 19.4662 14.5119 19.4144 15.5347C19.3626 16.5576 19.688 17.5639 20.329 18.3626M7.29566 7.12997L4.29966 9.29797L4.16699 26.246L6.98033 28.8973M22.9637 7.39664C22.7621 6.20253 22.1499 5.11629 21.2327 4.3255C20.3155 3.53471 19.151 3.08902 17.9403 3.06538C16.7295 3.04175 15.5485 3.44166 14.6011 4.19606C13.6538 4.95045 12.9997 6.01197 12.7517 7.19731" stroke="white" stroke-linecap="round" stroke-linejoin="round"/>
<path d="M23.4307 13.108C23.5884 13.4484 23.6193 13.8339 23.5177 14.1951C23.4162 14.5563 23.1889 14.8692 22.8769 15.0776C22.5649 15.286 22.1888 15.376 21.8163 15.3314C21.4438 15.2869 21.0994 15.1107 20.8454 14.8346C20.616 15.3888 20.5709 16.002 20.7167 16.5837C20.8625 17.1654 21.1915 17.6849 21.6551 18.0653C22.1187 18.4458 22.6924 18.6671 23.2914 18.6966C23.8904 18.7261 24.483 18.5622 24.9817 18.2291C25.4804 17.896 25.8588 17.4114 26.0611 16.8468C26.2633 16.2822 26.2786 15.6675 26.1048 15.0935C25.931 14.5195 25.5772 14.0167 25.0957 13.6591C24.6142 13.3016 24.0305 13.1084 23.4307 13.108V13.108ZM14.1827 13.338C14.3067 13.7035 14.2957 14.1014 14.1518 14.4595C14.0078 14.8177 13.7404 15.1125 13.398 15.2906C13.0555 15.4687 12.6607 15.5184 12.2848 15.4306C11.9089 15.3428 11.5768 15.1234 11.3487 14.812C11.0521 15.3523 10.9371 15.9737 11.0207 16.5844C11.1043 17.1951 11.382 17.7627 11.813 18.2034C12.2439 18.6442 12.8051 18.9346 13.4138 19.032C14.0224 19.1293 14.6462 19.0283 15.1931 18.744C15.74 18.4596 16.1809 18.0069 16.4508 17.4527C16.7206 16.8986 16.8052 16.2723 16.6918 15.6664C16.5785 15.0605 16.2733 14.5072 15.8214 14.088C15.3695 13.6688 14.7947 13.4061 14.1821 13.3386L14.1827 13.338ZM16.7407 20.9453C16.7407 19.0673 18.0947 18.304 19.8881 18.304C21.4847 18.304 22.3914 20.472 22.3914 20.472C20.8222 21.1396 19.1298 21.4685 17.4247 21.4373C18.4076 22.3495 19.6449 22.9409 20.9721 23.1326C20.9721 23.1326 20.4207 23.546 18.5287 23.546C16.9914 23.5466 16.7407 21.9106 16.7407 20.9446V20.9453Z" stroke="white" stroke-linecap="round" stroke-linejoin="round"/>
<path d="M20.7111 21.046C20.7516 21.7193 20.6937 22.3948 20.5391 23.0514" stroke="white" stroke-linecap="round" stroke-linejoin="round"/>
<rect x="1" y="0.5" width="31" height="31" stroke="black"/>
</svg>
