<svg width="64" height="64" viewBox="0 0 64 64" fill="none" xmlns="http://www.w3.org/2000/svg">
<path d="M56.1456 7.73039L56.1432 7.72806C54.6267 6.25114 52.8376 5.07647 50.8728 4.26883L50.8689 4.26724C48.8302 3.42589 46.6429 2.99499 44.4342 3.00004L44.4273 3.00006C41.3198 3.00005 38.2947 3.84521 35.6699 5.43599L35.6698 5.43605C35.0419 5.81662 34.4476 6.23317 33.886 6.68571L32.0037 8.20254L30.1213 6.68571C29.5597 6.23317 28.9655 5.81662 28.3375 5.43605L28.3374 5.43599C25.7126 3.84521 22.6875 3.00005 19.58 3.00005C17.3371 3.00005 15.178 3.42557 13.1384 4.26726L13.1351 4.26859C11.1625 5.07996 9.3888 6.24446 7.86316 7.72896L7.85906 7.73294L7.85906 7.73294C6.34808 9.19758 5.14212 10.9415 4.30857 12.8653L56.1456 7.73039ZM56.1456 7.73039C57.6561 9.19807 58.863 10.9432 59.6997 12.8675C60.5664 14.8691 61.0061 16.9843 60.9999 19.164V19.1725C60.9999 21.2098 60.5813 23.3987 59.6963 25.6975L59.6937 25.7044C58.9609 27.6218 57.8703 29.6714 56.4379 31.7955C54.1725 35.1505 51.0023 38.7283 46.9778 42.4195C40.284 48.554 33.6518 52.7948 33.4222 52.941L33.4216 52.9414L32 53.8472L30.5783 52.9414L30.5549 52.9264L30.5311 52.9119C30.5363 52.9151 30.4309 52.8491 30.205 52.7016C29.9914 52.5621 29.6884 52.3618 29.3089 52.1051C28.5496 51.5915 27.487 50.8544 26.221 49.9285C23.6846 48.0734 20.3557 45.4779 17.0224 42.4198L17.0221 42.4195M56.1456 7.73039L17.0221 42.4195M17.0221 42.4195C12.9976 38.7283 9.82739 35.1505 7.562 31.7955L17.0221 42.4195ZM7.56101 31.7941C6.13272 29.6757 5.04621 27.6235 4.30306 25.6961L7.56101 31.7941ZM3 19.1725C3 16.9863 3.44122 14.8677 4.30847 12.8655L4.30302 25.696C3.41848 23.3978 3 21.2094 3 19.1725Z" stroke="#FF3334" stroke-width="6"/>
<path d="M25.3232 23.2744C24.3423 23.104 23.3743 23.0268 22.4223 23.0268C20.9687 23.0268 19.5569 23.2101 18.2222 23.5253C16.0321 24.0463 14.0349 25.0786 12.8 26.6223L23.04 41.6L32.0961 41.728V30.2789C32.0961 26.3297 29.1438 23.9337 25.3232 23.2744Z" fill="#0D96E4"/>
<path d="M22.2744 25.6865C21.0298 25.6865 20.0232 24.6798 20.0232 23.4352V21.3705H24.5256V23.4352C24.5256 24.6798 23.5158 25.6865 22.2744 25.6865Z" fill="#E59600"/>
<path d="M28.0697 13.0217H16.4759C15.2249 13.0217 14.2022 14.112 14.2022 15.4434C14.2022 16.7748 15.2249 17.8651 16.4759 17.8651H28.0697C29.3207 17.8651 30.3434 16.7748 30.3434 15.4434C30.3434 14.112 29.3207 13.0217 28.0697 13.0217Z" fill="#E59600"/>
<path d="M22.2744 4.45746C18.5824 4.45746 15.1638 8.40674 15.1638 14.0862C15.1638 19.7368 18.6853 22.5315 22.2744 22.5315C25.8635 22.5315 29.385 19.7368 29.385 14.0862C29.385 8.40674 25.9664 4.45746 22.2744 4.45746Z" fill="#FFCA28"/>
<path d="M24.0593 18.4247C23.3839 18.8267 21.1681 18.8267 20.4927 18.4247C20.1036 18.1931 19.708 18.5469 19.8688 18.9006C20.0264 19.248 21.2356 20.052 22.2808 20.052C23.326 20.052 24.5192 19.248 24.6768 18.9006C24.8408 18.5469 24.4484 18.1931 24.0593 18.4247Z" fill="#795548"/>
<path d="M23.0913 16.7073C23.0701 16.6974 23.0471 16.692 23.0237 16.6912H21.5219C21.4994 16.6944 21.4768 16.7009 21.4543 16.7073C21.3193 16.762 21.2421 16.9035 21.3096 17.0546C21.3739 17.2058 21.673 17.6271 22.2744 17.6271C22.8758 17.6271 23.1749 17.2058 23.2392 17.0546C23.3035 16.9035 23.2296 16.762 23.0913 16.7073Z" fill="#E59600"/>
<path d="M18.7882 15.8518C19.3655 15.8518 19.8334 15.3666 19.8334 14.768C19.8334 14.1695 19.3655 13.6842 18.7882 13.6842C18.211 13.6842 17.743 14.1695 17.743 14.768C17.743 15.3666 18.211 15.8518 18.7882 15.8518Z" fill="#404040"/>
<path d="M25.7606 15.8518C26.3378 15.8518 26.8058 15.3666 26.8058 14.768C26.8058 14.1695 26.3378 13.6842 25.7606 13.6842C25.1833 13.6842 24.7154 14.1695 24.7154 14.768C24.7154 15.3666 25.1833 15.8518 25.7606 15.8518Z" fill="#404040"/>
<path d="M17.1802 12.9478C17.1802 12.9478 17.7527 12.192 18.7786 12.192C19.8045 12.192 20.3898 12.9574 20.3898 12.9574C20.431 13.015 20.4529 13.0842 20.4523 13.155C20.4516 13.2257 20.4286 13.2945 20.3864 13.3514C20.3442 13.4082 20.285 13.4502 20.2175 13.4713C20.1499 13.4924 20.0774 13.4915 20.0103 13.4688C20.0103 13.4688 19.6984 13.3273 19.4057 13.2565C19.113 13.1858 18.7914 13.1632 18.4731 13.1986C17.9907 13.2533 17.5951 13.4591 17.5951 13.4591C17.2896 13.5845 16.9937 13.2244 17.1802 12.9478ZM27.3686 12.9478C27.3686 12.9478 26.7961 12.192 25.7702 12.192C24.7443 12.192 24.159 12.9574 24.159 12.9574C24.1178 13.015 24.0959 13.0842 24.0966 13.155C24.0972 13.2257 24.1202 13.2945 24.1624 13.3514C24.2046 13.4082 24.2638 13.4502 24.3313 13.4713C24.3989 13.4924 24.4714 13.4915 24.5385 13.4688C24.5385 13.4688 24.8504 13.3273 25.1431 13.2565C25.4358 13.1858 25.7574 13.1632 26.0757 13.1986C26.5581 13.2501 26.9505 13.4591 26.9505 13.4591C27.2592 13.5845 27.5519 13.2244 27.3686 12.9478Z" fill="#6D4C41"/>
<path d="M22.3001 3.2H22.2937C12.7292 3.25145 14.6878 14.1763 14.6878 14.1763C14.6878 14.1763 15.1155 15.3019 15.3117 15.8004C15.3407 15.8711 15.4436 15.8647 15.4597 15.7875C15.6655 14.8742 16.3987 11.6356 16.7686 10.6515C16.9873 10.0726 17.5887 9.73496 18.1997 9.84431C19.1356 10.0148 20.631 10.2238 22.2776 10.2238H22.3162C23.9628 10.2238 25.4551 10.0148 26.3941 9.84431C27.0052 9.73496 27.6066 10.0726 27.8253 10.6515C28.1951 11.6324 28.9252 14.8517 29.131 15.7779C29.1471 15.8551 29.2532 15.8615 29.2821 15.7875L29.9093 14.1731C29.906 14.1763 31.8646 3.25145 22.3001 3.2Z" fill="#543930"/>
<path d="M29.906 14.1763C29.906 14.1763 31.8646 3.25145 22.3001 3.2H22.2937C22.1458 3.2 21.9978 3.20321 21.8563 3.20965C21.5701 3.22251 21.2967 3.24502 21.033 3.27397H21.0266C21.0073 3.27718 20.9912 3.2804 20.9719 3.2804C12.9158 4.29666 14.6878 14.1763 14.6878 14.1763L15.3149 15.794C15.3439 15.8647 15.4468 15.8583 15.4629 15.7843C15.6687 14.8613 16.4019 11.6356 16.7718 10.6547C16.9905 10.0759 17.5919 9.73818 18.2029 9.84752C19.1388 10.018 20.6342 10.227 22.2808 10.227H22.3194C23.966 10.227 25.4583 10.018 26.3974 9.84752C27.0084 9.73818 27.6098 10.0759 27.8285 10.6547C28.1983 11.6421 28.9348 14.8838 29.1374 15.794C29.1535 15.8679 29.2564 15.8776 29.2853 15.8036C29.4751 15.3051 29.906 14.1763 29.906 14.1763Z" fill="url(#paint0_radial_17_293)"/>
<path d="M41.6638 3.2C32.9773 3.2 33.0481 11.2304 33.0481 11.3591C33.0481 16.5594 33.4469 23.908 35.5276 26.7992C36.3542 27.9441 37.9493 28.0084 37.9493 28.0084L41.5448 28.002L45.1403 28.0084C45.1403 28.0084 46.7355 27.9441 47.562 26.7992C49.6428 23.908 50.0416 16.5594 50.0416 11.3591C50.0384 11.2304 50.3503 3.2 41.6638 3.2Z" fill="#543930"/>
<path d="M41.6638 3.2C32.9773 3.2 33.0481 11.2304 33.0481 11.3591C33.0481 16.5594 33.4469 23.908 35.5276 26.7992C36.3542 27.9441 37.9493 28.0084 37.9493 28.0084L41.5448 28.002L45.1403 28.0084C45.1403 28.0084 46.7355 27.9441 47.562 26.7992C49.6428 23.908 50.0416 16.5594 50.0416 11.3591C50.0384 11.2304 50.3503 3.2 41.6638 3.2Z" fill="url(#paint1_radial_17_293)"/>
<path d="M45.9701 23.5253C44.6354 23.2101 43.2236 23.0268 41.77 23.0268C40.818 23.0268 39.85 23.104 38.8691 23.2744C35.0485 23.9337 32.0962 26.3297 32.0962 30.2789V41.728L40.4477 41.5357L51.2 26.4332C49.965 24.8863 48.1602 24.0463 45.9701 23.5253Z" fill="#FF3334"/>
<path d="M41.5448 25.6993C40.3002 25.6993 39.2936 24.6927 39.2936 23.4481V21.3834H43.796V23.4481C43.796 24.6927 42.7894 25.6993 41.5448 25.6993Z" fill="#E59600"/>
<path d="M41.5448 5.66026C37.8914 5.66026 34.5082 8.3778 34.5082 14.1377C34.5082 18.7656 37.3737 21.5024 39.8693 22.3836C40.4643 22.5926 41.0367 22.6988 41.5481 22.6988C42.053 22.6988 42.6254 22.5926 43.214 22.3868C45.7096 21.5088 48.5847 18.7688 48.5847 14.1377C48.5815 8.37458 45.1983 5.66026 41.5448 5.66026Z" fill="#FFCA28"/>
<path d="M43.3104 18.4247C42.6415 18.8235 40.4514 18.8235 39.7824 18.4247C39.3997 18.1963 39.0074 18.5469 39.165 18.8942C39.3226 19.2383 40.5189 20.0327 41.5513 20.0327C42.5836 20.0327 43.7639 19.2383 43.9215 18.8942C44.0823 18.5437 43.6963 18.1963 43.3104 18.4247Z" fill="#795548"/>
<path d="M42.3553 16.7073C42.3336 16.6989 42.3109 16.6935 42.2877 16.6912H40.8019C40.7794 16.6944 40.7569 16.7009 40.7344 16.7073C40.5993 16.762 40.5254 16.9003 40.5897 17.0482C40.654 17.1961 40.9499 17.6142 41.5448 17.6142C42.1398 17.6142 42.4357 17.1961 42.5 17.0482C42.5643 16.9003 42.4904 16.762 42.3553 16.7073Z" fill="#E59600"/>
<path d="M38.094 15.8261C38.6642 15.8261 39.1264 15.3466 39.1264 14.7552C39.1264 14.1637 38.6642 13.6842 38.094 13.6842C37.5239 13.6842 37.0617 14.1637 37.0617 14.7552C37.0617 15.3466 37.5239 15.8261 38.094 15.8261Z" fill="#404040"/>
<path d="M44.9956 15.8261C45.5658 15.8261 46.028 15.3466 46.028 14.7552C46.028 14.1637 45.5658 13.6842 44.9956 13.6842C44.4255 13.6842 43.9633 14.1637 43.9633 14.7552C43.9633 15.3466 44.4255 15.8261 44.9956 15.8261Z" fill="#404040"/>
<path d="M39.6313 12.832C39.4351 12.5715 38.9784 12.192 38.094 12.192C37.2096 12.192 36.7529 12.5715 36.5568 12.832C36.4699 12.9478 36.4924 13.0796 36.5536 13.16C36.6082 13.234 36.7755 13.3048 36.9588 13.2436C37.1421 13.1825 37.4991 12.996 38.0972 12.9928C38.6954 12.996 39.0524 13.1825 39.2357 13.2436C39.419 13.3048 39.583 13.2372 39.6409 13.16C39.6956 13.0828 39.7181 12.9478 39.6313 12.832ZM46.5329 12.832C46.3367 12.5715 45.88 12.192 44.9956 12.192C44.1112 12.192 43.6545 12.5715 43.4584 12.832C43.3715 12.9478 43.394 13.0796 43.4551 13.16C43.5098 13.234 43.6771 13.3048 43.8604 13.2436C44.0437 13.1825 44.4007 12.996 44.9988 12.9928C45.597 12.996 45.954 13.1825 46.1373 13.2436C46.3206 13.3048 46.4846 13.2372 46.5425 13.16C46.5972 13.0828 46.6197 12.9478 46.5329 12.832Z" fill="#6D4C41"/>
<path d="M41.6638 3.2C32.9773 3.2 33.0481 11.2304 33.0481 11.3591C33.0481 13.0024 33.0867 14.8581 33.2089 16.7234L35.7045 21.7179C35.7045 21.7179 35.2736 17.804 35.2253 15.1508C35.2189 14.8099 35.161 13.9544 35.325 13.2083C35.5791 12.5779 35.9136 12.0891 36.3445 11.9926C41.0785 10.9281 43.7607 8.41639 43.7607 8.41639C44.4585 9.93757 46.6358 11.4234 47.4205 11.9862C47.6424 12.147 47.8096 12.6648 47.9351 13.308C48.0026 13.9737 47.9769 14.7037 47.9704 15.1315L47.324 21.705L49.8808 16.7266C49.8808 16.717 49.884 16.7041 49.8872 16.6944C50.0062 14.842 50.0448 12.996 50.0448 11.3623C50.0384 11.2304 50.3503 3.2 41.6638 3.2Z" fill="#543930"/>
<path d="M41.6638 3.2C32.9773 3.2 33.0481 11.2304 33.0481 11.3591C33.0481 13.0024 33.0867 14.8581 33.2089 16.7234L34.6304 16.7202C34.6175 16.1027 35.0517 12.2788 36.3413 11.9894C41.0753 10.9249 43.7575 8.41318 43.7575 8.41318C44.4553 9.93436 46.6326 11.4202 47.4173 11.983C48.0605 12.4461 48.2567 15.913 48.2438 16.7234H49.8743C49.8743 16.7137 49.8776 16.7009 49.8808 16.6912C49.9998 14.8388 50.0384 12.9928 50.0384 11.3591C50.0384 11.2304 50.3503 3.2 41.6638 3.2Z" fill="url(#paint2_radial_17_293)"/>
<path opacity="0.4" d="M32.1026 30.2789C32.1026 26.3297 28.9927 23.9337 25.172 23.2744C24.5803 23.1715 24.0561 23.1072 23.4129 23.0686V41.728H40.7794V23.059C40.1362 23.0943 39.5155 23.1651 38.882 23.2744C35.0613 23.9337 32.1026 26.3297 32.1026 30.2789Z" fill="url(#paint3_radial_17_293)"/>
<path d="M39.0331 35.2351C39.0331 32.0705 35.0099 31.0092 33.6077 31.0092H30.591C29.1921 31.0092 25.1624 32.0705 25.1624 35.2351C25.1624 35.2351 25.1592 35.4891 25.1527 35.8847L32 40.32L39.0395 35.8847L39.0331 35.2351Z" fill="#B2EBF2"/>
<path d="M32.0961 33.4083C31.6961 33.4083 31.3125 33.2494 31.0296 32.9666C30.7467 32.6837 30.5878 32.3001 30.5878 31.9V30.7423H33.6077V31.9C33.6064 32.3002 33.4466 32.6836 33.1634 32.9663C32.8801 33.249 32.4963 33.4079 32.0961 33.4083ZM36.8366 24.6961H27.3557C26.333 24.6961 25.4969 25.5001 25.4969 26.4842C25.4969 27.4683 26.333 28.2724 27.3557 28.2724H36.8334C37.856 28.2724 38.6922 27.4683 38.6922 26.4842C38.6922 25.5001 37.8593 24.6961 36.8366 24.6961Z" fill="#E59600"/>
<path d="M32.0961 17.3186C29.0956 17.3186 26.3202 20.4703 26.3202 25.0049C26.3202 29.5137 29.1824 31.7457 32.0961 31.7457C35.0099 31.7457 37.8721 29.517 37.8721 25.0049C37.8721 20.4671 35.0967 17.3186 32.0961 17.3186Z" fill="#FFCA28"/>
<path d="M33.4855 28.4525C32.958 28.7644 31.2343 28.7644 30.7068 28.4525C30.4045 28.2724 30.0958 28.5489 30.2212 28.8223C30.3434 29.0924 31.2857 29.7196 32.0994 29.7196C32.913 29.7196 33.8425 29.0924 33.9647 28.8223C34.0933 28.5457 33.7878 28.2724 33.4855 28.4525Z" fill="#795548"/>
<path d="M32.7329 27.1114C32.7157 27.1037 32.6971 27.0994 32.6783 27.0985H31.5108C31.4915 27.1017 31.4755 27.1049 31.4562 27.1114C31.35 27.1532 31.2921 27.2625 31.3436 27.3815C31.3951 27.4973 31.6266 27.8253 32.0962 27.8253C32.5657 27.8253 32.7972 27.4973 32.8487 27.3815C32.8969 27.2625 32.8391 27.1532 32.7329 27.1114Z" fill="#E59600"/>
<path d="M29.3497 27.1017C29.799 27.1017 30.1633 26.7245 30.1633 26.2591C30.1633 25.7938 29.799 25.4165 29.3497 25.4165C28.9003 25.4165 28.536 25.7938 28.536 26.2591C28.536 26.7245 28.9003 27.1017 29.3497 27.1017Z" fill="#404040"/>
<path d="M34.8426 27.1017C35.292 27.1017 35.6563 26.7245 35.6563 26.2591C35.6563 25.7938 35.292 25.4165 34.8426 25.4165C34.3933 25.4165 34.029 25.7938 34.029 26.2591C34.029 26.7245 34.3933 27.1017 34.8426 27.1017Z" fill="#404040"/>
<path d="M28.0761 24.7605C28.1083 24.7187 28.1179 24.6929 28.1758 24.635C28.3045 24.5 28.5553 24.3392 28.7997 24.2555C29.0345 24.1751 29.1439 24.1751 29.3207 24.1751C29.5941 24.1751 29.7613 24.233 29.8417 24.2555C29.9543 24.2941 30.0604 24.3456 30.1666 24.4035C30.3434 24.5096 30.7261 24.7701 30.6104 25.0049C30.4817 25.2654 30.2855 25.1689 30.1087 25.1014C30.0315 25.0788 29.6841 24.9406 29.3175 24.9406C29.1181 24.9406 29.0345 24.9631 28.9831 24.9695C28.7483 25.0081 28.5714 25.0821 28.5392 25.0917C28.417 25.14 28.3302 25.2107 28.1919 25.156C28.044 25.0917 27.9829 24.8988 28.0761 24.7605ZM36.1162 24.7605C36.084 24.7187 36.0744 24.6929 36.0165 24.635C35.8911 24.5 35.637 24.3392 35.3926 24.2555C35.1578 24.1751 35.0485 24.1751 34.8716 24.1751C34.5982 24.1751 34.431 24.233 34.3506 24.2555C34.238 24.2941 34.1319 24.3456 34.0258 24.4035C33.8489 24.5096 33.4662 24.7701 33.582 25.0049C33.7106 25.2654 33.9068 25.1689 34.0837 25.1014C34.1609 25.0788 34.5082 24.9406 34.8748 24.9406C35.0742 24.9406 35.1578 24.9631 35.2093 24.9695C35.4441 25.0081 35.6209 25.0821 35.6531 25.0917C35.7753 25.14 35.8621 25.2107 35.9972 25.156C36.1484 25.0917 36.2095 24.8988 36.1162 24.7605Z" fill="#6D4C41"/>
<path d="M32.1315 16.64C25.722 16.64 25.275 21.8757 25.5355 24.1655C25.7638 26.1884 26.8187 26.6869 26.8187 26.6869C26.8187 26.6869 26.6096 24.9213 26.9473 23.6413C27.2142 22.625 27.8478 21.8725 27.8478 21.8725C27.8478 21.8725 29.0056 22.8759 31.1603 23.5287C32.1991 23.8439 33.5305 23.6863 33.5305 23.6863L32.7844 22.3677C32.7844 22.3677 34.0065 23.265 34.7655 23.4355C35.7399 23.6541 36.4539 23.5609 36.4539 23.5609L36.0969 22.1683C36.0969 22.1683 36.7176 22.5736 37.1807 23.6831C37.6438 24.7926 37.3576 26.6869 37.3576 26.6869C37.3576 26.6869 38.4703 26.1916 38.6504 24.1655C38.8723 21.6281 38.5121 16.64 32.1315 16.64Z" fill="#543930"/>
<path d="M32.1315 16.64C25.722 16.64 25.275 21.8757 25.5355 24.1655C25.7638 26.1884 26.8187 26.6869 26.8187 26.6869C26.8187 26.6869 26.6096 24.9213 26.9473 23.6413C27.2142 22.625 27.8478 21.8725 27.8478 21.8725C27.8478 21.8725 29.0056 22.8759 31.1603 23.5287C32.1991 23.8439 33.5305 23.6863 33.5305 23.6863L32.7844 22.3677C32.7844 22.3677 34.0065 23.265 34.7655 23.4355C35.7399 23.6541 36.4539 23.5609 36.4539 23.5609L36.0969 22.1683C36.0969 22.1683 36.7176 22.5736 37.1807 23.6831C37.6438 24.7926 37.3576 26.6869 37.3576 26.6869C37.3576 26.6869 38.4703 26.1916 38.6504 24.1655C38.8723 21.6281 38.5121 16.64 32.1315 16.64Z" fill="url(#paint4_radial_17_293)"/>
<path d="M53.4832 26.8506C53.398 26.7152 53.2708 26.602 53.1153 26.5232C52.9599 26.4445 52.782 26.4031 52.6009 26.4036H43.1869C42.8619 26.4036 42.5537 26.5395 42.368 26.7683L32 39.3839L21.6278 26.7647C21.5367 26.6521 21.4144 26.5599 21.2717 26.4964C21.129 26.4328 20.9701 26.3997 20.8088 26.4H11.3949C11.0276 26.4 10.6899 26.5716 10.5168 26.847C10.3438 27.1223 10.3649 27.4585 10.5675 27.7159L26.0097 47.2257V63.1668C26.0097 63.6281 26.453 64 26.9975 64H37.0067C37.5513 64 37.9945 63.6281 37.9945 63.1668V47.2293L53.4325 27.7195C53.6351 27.462 53.6562 27.1259 53.4832 26.8506Z" fill="#1EB742"/>
<defs>
<radialGradient id="paint0_radial_17_293" cx="0" cy="0" r="1" gradientUnits="userSpaceOnUse" gradientTransform="translate(22.2966 12.2652) scale(8.01884 9.04686)">
<stop offset="0.794" stop-color="#6D4C41" stop-opacity="0"/>
<stop offset="1" stop-color="#6D4C41"/>
</radialGradient>
<radialGradient id="paint1_radial_17_293" cx="0" cy="0" r="1" gradientUnits="userSpaceOnUse" gradientTransform="translate(41.5445 14.9673) scale(10.0671 11.9809)">
<stop offset="0.794" stop-color="#6D4C41" stop-opacity="0"/>
<stop offset="1" stop-color="#6D4C41"/>
</radialGradient>
<radialGradient id="paint2_radial_17_293" cx="0" cy="0" r="1" gradientUnits="userSpaceOnUse" gradientTransform="translate(41.6156 15.8209) scale(10.5447 12.796)">
<stop offset="0.794" stop-color="#6D4C41" stop-opacity="0"/>
<stop offset="1" stop-color="#6D4C41"/>
</radialGradient>
<radialGradient id="paint3_radial_17_293" cx="0" cy="0" r="1" gradientUnits="userSpaceOnUse" gradientTransform="translate(32.0961 32.3934) scale(8.71672 12.6985)">
<stop offset="0.594" stop-color="#212121"/>
<stop offset="1" stop-color="#616161" stop-opacity="0.05"/>
</radialGradient>
<radialGradient id="paint4_radial_17_293" cx="0" cy="0" r="1" gradientUnits="userSpaceOnUse" gradientTransform="translate(32.0717 23.6693) rotate(90) scale(8.26764 7.21358)">
<stop offset="0.794" stop-color="#6D4C41" stop-opacity="0"/>
<stop offset="1" stop-color="#6D4C41"/>
</radialGradient>
</defs>
</svg>
